<svg width="12" height="12" viewBox="0 0 12 12" fill="none" xmlns="http://www.w3.org/2000/svg">
<path d="M3.144 10.8565C3.048 10.7605 3 10.6417 3 10.5V6.425C2.55 6.30834 2.1875 6.07084 1.9125 5.7125C1.6375 5.35417 1.5 4.95 1.5 4.5V1.5C1.5 1.35834 1.548 1.23967 1.644 1.144C1.74 1.04834 1.85867 1.00034 2 1C2.14133 0.999668 2.26017 1.04767 2.3565 1.144C2.45283 1.24034 2.50067 1.359 2.5 1.5V4H3V1.5C3 1.35834 3.048 1.23967 3.144 1.144C3.24 1.04834 3.35867 1.00034 3.5 1C3.64133 0.999668 3.76017 1.04767 3.8565 1.144C3.95283 1.24034 4.00067 1.359 4 1.5V4H4.5V1.5C4.5 1.35834 4.548 1.23967 4.644 1.144C4.74 1.04834 4.85867 1.00034 5 1C5.14133 0.999668 5.26017 1.04767 5.3565 1.144C5.45283 1.24034 5.50067 1.359 5.5 1.5V4.5C5.5 4.95 5.3625 5.35417 5.0875 5.7125C4.8125 6.07084 4.45 6.30834 4 6.425V10.5C4 10.6417 3.952 10.7605 3.856 10.8565C3.76 10.9525 3.64133 11.0003 3.5 11C3.35867 10.9997 3.24 10.9522 3.144 10.8565ZM8.144 10.856C8.048 10.7607 8 10.642 8 10.5V6.2375C7.55 6.0875 7.1875 5.773 6.9125 5.294C6.6375 4.815 6.5 4.27117 6.5 3.6625C6.5 2.92083 6.69583 2.29167 7.0875 1.775C7.47917 1.25834 7.95 1 8.5 1C9.05 1 9.52083 1.26034 9.9125 1.781C10.3042 2.30167 10.5 2.933 10.5 3.675C10.5 4.28333 10.3625 4.825 10.0875 5.3C9.8125 5.775 9.45 6.0875 9 6.2375V10.5C9 10.6417 8.952 10.7605 8.856 10.8565C8.76 10.9525 8.64133 11.0003 8.5 11C8.35867 10.9997 8.24 10.9517 8.144 10.856Z" fill="currentColor"/>
</svg>
