<svg width="15" height="15" viewBox="0 0 15 15" fill="none" xmlns="http://www.w3.org/2000/svg">
<path d="M6.55258 3.98179L4.95662 6.03373C4.90335 6.10225 4.82796 6.15017 4.7433 6.16932C4.65864 6.18847 4.56996 6.17765 4.49239 6.13872L2.89868 5.3415C2.99554 5.12943 3.02411 4.89251 2.98045 4.66349C2.93679 4.43448 2.82305 4.22468 2.65497 4.06312C2.48689 3.90156 2.27277 3.79621 2.04221 3.76163C1.81164 3.72706 1.57604 3.76497 1.36796 3.87013C1.15989 3.97529 0.989621 4.1425 0.88071 4.34863C0.771799 4.55477 0.729622 4.78965 0.760012 5.0208C0.790401 5.25195 0.891855 5.46795 1.05035 5.63893C1.20884 5.80991 1.41653 5.92743 1.64472 5.97523L2.91368 12.0051C2.95812 12.2157 3.07369 12.4046 3.24099 12.5401C3.4083 12.6756 3.61713 12.7494 3.83241 12.749H11.1687C11.3838 12.7492 11.5925 12.6753 11.7596 12.5399C11.9268 12.4044 12.0423 12.2156 12.0867 12.0051L13.3556 5.97523C13.5838 5.92743 13.7915 5.80991 13.95 5.63893C14.1085 5.46795 14.2099 5.25195 14.2403 5.0208C14.2707 4.78965 14.2286 4.55477 14.1196 4.34863C14.0107 4.1425 13.8405 3.97529 13.6324 3.87013C13.4243 3.76497 13.1887 3.72706 12.9581 3.76163C12.7276 3.79621 12.5135 3.90156 12.3454 4.06312C12.1773 4.22468 12.0636 4.43448 12.0199 4.66349C11.9762 4.89251 12.0048 5.12943 12.1017 5.3415L10.5072 6.13872C10.4296 6.17765 10.341 6.18847 10.2563 6.16932C10.1716 6.15017 10.0963 6.10225 10.043 6.03373L8.44702 3.98104C8.55593 3.81105 8.6171 3.61489 8.62409 3.41313C8.63109 3.21137 8.58366 3.01144 8.48679 2.83432C8.38991 2.6572 8.24716 2.50941 8.0735 2.40646C7.89985 2.3035 7.70168 2.24918 7.4998 2.24918C7.29792 2.24918 7.09976 2.3035 6.9261 2.40646C6.75244 2.50941 6.60969 2.6572 6.51281 2.83432C6.41594 3.01144 6.36851 3.21137 6.37551 3.41313C6.38251 3.61489 6.44367 3.8118 6.55258 3.98179ZM7.4998 10.4991C7.35207 10.4991 7.20578 10.47 7.06929 10.4135C6.93281 10.3569 6.80879 10.2741 6.70433 10.1696C6.59987 10.0651 6.517 9.94113 6.46047 9.80464C6.40393 9.66815 6.37483 9.52186 6.37483 9.37413C6.37483 9.2264 6.40393 9.08011 6.46047 8.94363C6.517 8.80714 6.59987 8.68312 6.70433 8.57866C6.80879 8.4742 6.93281 8.39133 7.06929 8.3348C7.20578 8.27826 7.35207 8.24916 7.4998 8.24916C7.79816 8.24916 8.0843 8.36769 8.29527 8.57866C8.50625 8.78963 8.62477 9.07577 8.62477 9.37413C8.62477 9.67249 8.50625 9.95863 8.29527 10.1696C8.0843 10.3806 7.79816 10.4991 7.4998 10.4991Z" fill="#FFECF6"/>
</svg>
