<svg width="20" height="20" viewBox="0 0 20 20" fill="none" xmlns="http://www.w3.org/2000/svg">
<path d="M5.625 1.66699C5.45924 1.66699 5.30027 1.73284 5.18306 1.85005C5.06585 1.96726 5 2.12623 5 2.29199V8.12533C4.99998 9.28792 5.42263 10.4109 6.18921 11.2849C6.95579 12.159 8.01401 12.7245 9.16667 12.8762V17.0903L7.29417 17.0837C7.12841 17.083 6.96917 17.1482 6.85149 17.2649C6.73381 17.3817 6.66733 17.5404 6.66667 17.7062C6.666 17.8719 6.73122 18.0312 6.84796 18.1488C6.9647 18.2665 7.12341 18.333 7.28917 18.3337L9.78917 18.3428H9.79333L12.71 18.3337C12.8758 18.3332 13.0346 18.2669 13.1515 18.1494C13.2684 18.0319 13.3338 17.8728 13.3333 17.707C13.3329 17.5412 13.2666 17.3824 13.1491 17.2655C13.0316 17.1486 12.8724 17.0832 12.7067 17.0837L10.4167 17.0912V12.8803C11.6807 12.7275 12.845 12.117 13.6895 11.1641C14.534 10.2112 15.0002 8.98193 15 7.70866V2.29199C15 2.12623 14.9342 1.96726 14.8169 1.85005C14.6997 1.73284 14.5408 1.66699 14.375 1.66699H5.625ZM6.25 5.83366V2.91699H13.75V5.83366H6.25ZM13.0692 8.08949C12.9429 8.75308 12.6038 9.35746 12.1033 9.81116C11.6915 10.1864 11.1869 10.4448 10.6417 10.5595C10.5335 10.5821 10.4207 10.5609 10.3282 10.5004C10.2357 10.4399 10.171 10.3452 10.1483 10.237C10.1257 10.1288 10.1469 10.0161 10.2074 9.92353C10.2679 9.83102 10.3626 9.76631 10.4708 9.74366C10.8707 9.66003 11.2408 9.47067 11.5425 9.19533C11.9083 8.8617 12.1568 8.41893 12.2508 7.93283C12.2733 7.82597 12.3368 7.73222 12.4277 7.67173C12.5187 7.61124 12.6297 7.58885 12.7369 7.60938C12.8442 7.62991 12.9391 7.69172 13.0012 7.78151C13.0633 7.8713 13.0877 7.98189 13.0692 8.08949Z" fill="currentColor"/>
</svg>
