<svg width="24" height="24" viewBox="0 0 24 24" fill="none" xmlns="http://www.w3.org/2000/svg">
<path d="M12.004 2C13.8269 2.00063 15.6256 2.34733 17.2638 3.01367C18.9018 3.68 20.3363 4.64858 21.4581 5.8457C22.5799 7.043 23.3599 8.43795 23.7384 9.92383C24.1168 11.4098 24.0842 12.9481 23.6427 14.4219C23.2011 15.8956 22.3626 17.2663 21.1905 18.4297C20.0184 19.5931 18.5435 20.5192 16.878 21.1367C15.2125 21.7542 13.4 22.0474 11.5782 21.9941C9.75635 21.9409 7.97285 21.5424 6.36336 20.8291L2.43465 21.9199C2.10934 22.0103 1.75963 22.0236 1.42586 21.958C1.09216 21.8924 0.786483 21.7509 0.544028 21.5488C0.301704 21.3469 0.131594 21.0924 0.0528168 20.8145C-0.0259489 20.5363 -0.00977446 20.2447 0.0987152 19.9736L1.40829 16.7002C0.434464 15.1763 -0.049428 13.4681 0.00398866 11.7422C0.0574061 10.0164 0.6463 8.33154 1.71297 6.85156C2.77978 5.37152 4.28852 4.14603 6.09188 3.2959C7.89518 2.44584 9.93211 1.99962 12.004 2ZM8.00008 11C7.44784 11 7.00008 11.4477 7.00008 12C7.00008 12.5523 7.44784 13 8.00008 13C8.55237 13 9.00008 12.5523 9.00008 12C9.00008 11.4477 8.55237 11 8.00008 11ZM12.0001 11C11.4478 11 11.0001 11.4477 11.0001 12C11.0001 12.5523 11.4478 13 12.0001 13C12.5524 13 13.0001 12.5523 13.0001 12C13.0001 11.4477 12.5524 11 12.0001 11ZM16.0001 11C15.4478 11 15.0001 11.4477 15.0001 12C15.0001 12.5523 15.4478 13 16.0001 13C16.5524 13 17.0001 12.5523 17.0001 12C17.0001 11.4477 16.5524 11 16.0001 11Z" fill="currentColor"/>
</svg>
