<svg width="16" height="16" viewBox="0 0 16 16" fill="none" xmlns="http://www.w3.org/2000/svg">
<path fill-rule="evenodd" clip-rule="evenodd" d="M5.7699 5.70599L9.11117 2.36473C9.71017 1.76573 10.748 1.74779 11.3022 2.30206L12.4913 3.49113C13.0446 4.04553 13.027 5.08279 12.4282 5.68253L8.99663 9.11359L8.32464 9.78553L7.8207 10.2894L7.81243 10.2811C6.9625 10.9838 5.23197 11.5872 4.24344 11.2377L3.9611 11.5196C3.7657 11.7147 3.4491 11.7145 3.25404 11.5191C3.07664 11.3414 3.0607 11.0636 3.2061 10.868L3.25457 10.8119L3.5455 10.5214C3.21704 9.52866 3.81584 7.82286 4.5117 6.98046L4.50357 6.97233L4.6641 6.81179L4.66784 6.80786L5.7699 5.70599ZM5.22524 7.69393C4.7231 8.38673 4.2199 9.96686 4.5229 10.2699C4.8261 10.5731 6.4063 10.07 7.09897 9.56766L5.22524 7.69393ZM5.9177 6.97226L7.82064 8.87519L11.7209 4.97573C11.917 4.77926 11.9392 4.42233 11.8198 4.24233L11.7838 4.19786L10.5952 3.00919C10.437 2.85099 10.0321 2.85799 9.81823 3.07186L6.47664 6.41266L5.9177 6.97226ZM12.8336 12.7679C13.1092 12.7679 13.3326 12.9913 13.3326 13.2669C13.3326 13.5195 13.1449 13.7283 12.9014 13.7613L12.8336 13.7659H3.16697C2.89137 13.7659 2.66797 13.5425 2.66797 13.2669C2.66797 13.0142 2.8557 12.8055 3.09924 12.7724L3.16697 12.7679H12.8336Z" fill="currentColor"/>
</svg>
